<svg version="1.1" id="Layer_1" xmlns="http://www.w3.org/2000/svg" xmlns:xlink="http://www.w3.org/1999/xlink" x="0px" y="0px"
	 width="100%" viewBox="0 0 480 480" enable-background="new 0 0 480 480" xml:space="preserve">
<path fill="#000000" opacity="1.000000" stroke="none" 
	d="
M481.000000,474.625000 
	C479.195526,478.181061 476.527008,479.757935 472.809326,479.622040 
	C471.153534,479.561554 469.486877,479.887451 467.825134,479.887604 
	C317.176788,479.901337 166.528442,479.895874 15.880100,479.926025 
	C11.905289,479.926819 8.435055,479.455261 7.694183,474.666290 
	C6.880864,469.408966 9.089206,466.720917 14.432936,466.680267 
	C24.764425,466.601685 35.096916,466.654205 45.428993,466.653870 
	C74.925423,466.652924 104.422302,466.573730 133.917755,466.743530 
	C138.018723,466.767151 140.492905,465.547638 141.997437,461.757141 
	C145.437790,453.089600 150.425247,445.617279 158.460281,440.399536 
	C162.494507,437.779785 163.956787,433.976318 163.781448,428.903748 
	C163.350616,416.439392 163.869736,403.948212 162.788971,391.490112 
	C162.541336,388.635559 162.093658,385.817444 161.028168,383.222168 
	C154.412643,367.108368 151.855759,349.932343 147.806931,333.150208 
	C147.402786,331.475098 146.964981,330.023773 145.757553,328.751923 
	C125.490135,307.402740 110.668030,282.328156 96.602226,256.744568 
	C93.794312,251.637405 90.967911,246.525116 88.501404,241.250870 
	C86.860046,237.741089 84.745598,236.860825 80.987137,237.698837 
	C69.485489,240.263367 57.945816,242.698853 46.347889,244.776825 
	C37.172718,246.420715 29.141630,243.862228 23.139837,236.417969 
	C18.005224,230.049286 18.301525,222.845459 24.119066,217.382416 
	C40.659840,201.849609 55.494232,184.772842 70.076584,167.441086 
	C72.710846,164.310135 76.190285,161.890289 79.719208,158.751007 
	C74.946632,152.763016 69.625275,147.238602 65.827240,140.606369 
	C65.280373,139.651413 64.285637,139.423523 63.240452,139.378021 
	C53.496571,138.953796 45.450710,134.314636 37.682041,129.025787 
	C26.984676,121.743118 17.982197,112.643158 9.825463,102.682739 
	C6.735686,98.909721 6.741894,94.235771 9.495008,91.896271 
	C12.521314,89.324615 17.216093,90.144127 20.448397,94.012817 
	C28.716553,103.908813 37.810181,112.902626 48.720989,119.880402 
	C51.846249,121.879097 54.979794,124.122643 59.444069,124.257996 
	C57.937729,112.817322 55.019657,102.194176 50.021755,92.179115 
	C49.452408,91.038231 48.416821,90.032364 47.388344,89.232857 
	C31.174616,76.628654 26.963737,59.245411 27.735222,39.904125 
	C27.857775,36.831680 29.728331,35.069027 32.803864,34.719311 
	C36.057552,34.349339 38.803379,35.082916 40.162224,38.446938 
	C41.314514,41.299587 41.130310,44.317852 41.257557,47.315109 
	C41.669891,57.027699 44.296787,65.957985 50.594082,73.629730 
	C52.861931,76.392555 54.935757,76.737091 57.647499,74.285400 
	C62.826176,69.603348 68.385597,65.346382 71.564751,58.805683 
	C73.603439,54.611332 77.540482,53.192532 81.035347,55.024483 
	C85.161278,57.187218 85.180885,60.911919 83.897774,64.554024 
	C81.920265,70.167145 77.907578,74.483002 73.791489,78.636269 
	C70.644127,81.812057 65.036476,83.631142 64.223152,87.623619 
	C63.481808,91.262749 66.540497,95.670692 67.906532,99.745712 
	C69.863983,105.584938 71.394806,111.547607 72.291565,117.629646 
	C74.187508,130.488205 81.289452,140.299255 90.197739,149.146988 
	C92.850082,151.781296 94.915909,151.659851 97.709671,149.002487 
	C103.314178,143.671661 108.046371,137.805145 111.777267,130.430084 
	C104.817146,125.898605 97.872055,121.658592 91.911682,116.120155 
	C89.838318,114.193581 87.748238,112.278221 85.779289,110.247681 
	C82.798622,107.173782 82.303963,103.594292 85.269592,100.471848 
	C88.244438,97.339699 91.854378,97.755394 95.108025,100.450127 
	C99.593071,104.164696 103.945045,108.043892 108.505806,111.661201 
	C110.409271,113.170906 112.289429,114.939636 114.777313,115.322838 
	C116.453659,114.691795 116.462555,113.302780 116.755356,112.004486 
	C119.220680,101.073372 123.015694,90.653564 128.256485,80.712898 
	C130.732162,76.017082 132.367401,70.885925 134.616776,66.060806 
	C136.694290,61.604347 135.554611,58.119728 132.242676,54.814255 
	C122.256737,44.847794 110.543098,37.195507 98.800858,29.570488 
	C97.543808,28.754198 96.212296,28.043123 95.006989,27.158377 
	C91.378792,24.495144 90.223518,20.246992 92.498192,17.212927 
	C95.184616,13.629632 98.824203,13.645866 102.309166,15.686531 
	C111.801086,21.244644 120.972641,27.309698 129.633636,34.108582 
	C133.283676,36.973869 136.828308,39.973450 140.955200,43.349064 
	C143.065323,35.474205 143.745621,27.994829 143.651947,20.408308 
	C143.621078,17.909430 143.570694,15.410279 143.582596,12.911507 
	C143.599060,9.453672 145.121063,7.132670 148.728546,6.711255 
	C152.417542,6.280315 155.423767,7.274180 156.385956,11.341399 
	C157.941376,17.916182 157.498413,24.591078 156.859482,31.199875 
	C155.525284,45.000607 152.163467,58.350903 147.272354,71.322067 
	C146.940948,72.200905 146.325714,73.154358 147.196075,74.232170 
	C149.171066,75.309135 151.054138,74.004280 152.838043,73.481949 
	C161.457382,70.958221 169.983856,68.119026 178.585770,65.533157 
	C181.891022,64.539543 183.887024,62.747635 184.953308,59.305870 
	C187.418564,51.348507 189.225891,43.260685 190.704529,35.082336 
	C190.881744,34.102077 190.981476,33.099499 191.253342,32.146111 
	C192.396652,28.136696 194.869141,25.598051 199.238098,26.469324 
	C203.544586,27.328133 205.221954,30.480881 204.496384,34.692589 
	C203.290741,41.690853 201.892639,48.655960 200.562805,55.702843 
	C202.870026,56.834957 204.562576,55.391823 206.269714,54.644295 
	C211.301987,52.440735 216.227859,49.994377 221.258072,47.785881 
	C226.124680,45.649227 230.214233,46.481457 231.892090,49.744030 
	C233.892334,53.633461 232.119156,57.589287 227.039963,60.098209 
	C200.218170,73.347168 172.169342,83.198441 143.065262,90.019089 
	C139.605164,90.829987 137.627899,92.338226 136.241653,95.618904 
	C132.457993,104.573250 130.314331,113.941780 128.381012,123.400238 
	C124.593796,141.928604 113.754379,156.074310 98.331650,165.799805 
	C90.976715,170.437790 82.148132,173.026215 76.772568,180.313461 
	C64.839363,196.490448 50.336033,210.238663 36.254696,224.401276 
	C33.262188,227.411057 34.282108,229.267273 37.762295,230.598984 
	C40.133183,231.506241 42.480804,231.802948 45.072826,231.247574 
	C58.386963,228.394913 71.725067,225.651352 85.073723,222.963669 
	C92.377808,221.493027 94.356789,222.560593 97.761185,229.274353 
	C111.486153,256.341125 126.089729,282.879456 144.912994,306.840393 
	C148.918152,311.938690 152.985840,317.009796 158.088882,321.125793 
	C160.125488,322.768494 161.075653,325.098846 161.403214,327.651947 
	C163.566544,344.513184 167.442871,360.958832 173.370346,376.901428 
	C175.362823,382.260437 176.419525,387.728516 176.370834,393.482941 
	C176.256622,406.980316 176.080963,420.486603 176.459122,433.974457 
	C176.629745,440.059875 174.474243,444.616730 170.201553,448.487518 
	C167.487991,450.945892 164.682709,453.304413 161.886276,455.669556 
	C158.996063,458.114044 157.185165,461.141968 156.420212,464.977142 
	C160.199783,467.445862 163.086914,467.056976 165.193771,463.085022 
	C165.739883,462.055389 166.351013,461.047028 166.772308,459.966553 
	C169.815521,452.161713 174.114639,445.563599 182.424927,442.375732 
	C186.695496,440.737518 187.878265,437.398926 187.761093,432.810791 
	C187.412857,419.175812 187.924850,405.523071 186.791718,391.899231 
	C186.540680,388.880951 186.082993,385.913605 185.024155,383.124573 
	C178.120407,364.939789 176.112335,345.695831 172.698288,326.756531 
	C172.109543,323.490509 171.483749,320.238983 171.628906,316.864197 
	C171.779007,313.374847 173.215332,311.107880 176.766800,310.610718 
	C180.537491,310.082855 183.530304,311.340668 184.348434,315.321655 
	C185.817017,322.467896 186.968582,329.678894 188.287781,336.856354 
	C190.865738,350.882416 192.498291,365.112701 197.912155,378.506165 
	C199.722961,382.985931 200.392441,387.780426 200.362106,392.684174 
	C200.274460,406.848572 199.707458,421.051331 200.551834,435.165863 
	C201.131760,444.859985 197.055710,450.632385 189.126541,454.670471 
	C184.963181,456.790833 181.587677,459.528290 180.186050,464.179291 
	C180.045410,464.646057 180.002838,465.142426 179.768265,466.427734 
	C185.968460,466.427734 192.015182,466.594513 198.043381,466.333527 
	C200.038498,466.247162 200.590179,463.882446 201.421249,462.295349 
	C203.538849,458.251312 205.999207,454.470947 210.156738,452.298859 
	C212.770325,450.933380 212.718567,448.742340 212.782730,446.363770 
	C213.065811,435.870850 212.610428,425.392029 211.637711,414.962891 
	C210.351517,401.172913 213.947357,387.871887 215.239899,374.346863 
	C215.470078,371.938263 214.951614,369.753967 214.896240,367.466095 
	C214.489029,350.643951 215.389023,333.916901 218.841049,317.395508 
	C218.908936,317.070526 219.011642,316.752136 219.109451,316.434174 
	C220.563828,311.706146 223.467987,309.592773 227.464554,310.530212 
	C231.999390,311.593872 233.012222,314.865967 232.366180,318.957458 
	C231.461334,324.687988 230.447250,330.401184 229.508636,336.126526 
	C228.593323,341.709747 229.346237,342.688324 234.912247,342.637817 
	C261.860016,342.393280 288.039917,337.084595 313.960205,330.311340 
	C326.507446,327.032593 338.893158,323.139374 351.409576,319.736145 
	C354.761536,318.824707 356.257751,317.228699 355.689056,313.763885 
	C355.529114,312.789703 355.689362,311.766846 355.649261,310.768433 
	C355.480316,306.562317 356.161133,302.983582 361.442230,302.685547 
	C366.093658,302.423096 368.939117,304.949188 369.104645,310.433746 
	C369.261902,315.643829 370.254395,320.663452 371.418518,325.666351 
	C374.414032,338.539703 378.590424,350.949829 386.247559,361.933350 
	C390.331879,367.791931 395.412933,372.355408 402.015778,375.329041 
	C406.402374,377.304535 410.555298,379.817688 414.743713,382.211029 
	C426.538757,388.951050 429.971466,399.252747 428.197571,412.293549 
	C426.745148,422.970825 425.945892,433.759460 425.383972,444.526245 
	C425.087921,450.198517 423.306000,454.285370 418.274902,457.247772 
	C415.053894,459.144379 410.632355,460.435303 410.727722,466.175140 
	C415.223236,467.079651 419.805054,466.621582 424.364502,466.448395 
	C424.667206,466.436890 425.122650,466.257172 425.234589,466.024597 
	C428.315063,459.621674 434.498199,454.477448 435.451050,447.461304 
	C438.106781,427.906952 439.336578,408.159027 441.988617,388.604065 
	C442.787842,382.710999 441.051575,379.697906 436.979340,376.057129 
	C425.017273,365.362518 420.219574,351.994080 423.995728,336.018616 
	C426.554077,325.195343 429.556061,314.480347 431.155518,303.431732 
	C432.095551,296.938385 431.709045,290.472900 431.627167,283.995575 
	C431.539429,277.052429 432.866882,274.810211 437.655762,274.654694 
	C442.482025,274.497986 444.857819,277.315735 445.297363,283.666443 
	C446.367950,299.135223 443.725464,314.152374 439.818970,329.019592 
	C439.143311,331.591003 438.618011,334.205231 437.860107,336.751160 
	C433.926117,349.965881 437.863037,360.934143 449.208221,367.898773 
	C457.112396,372.751068 456.892700,378.908325 456.092804,386.171051 
	C454.459015,401.005615 452.870239,415.845154 451.294769,430.686066 
	C450.541260,437.783813 449.941193,444.898834 449.104767,451.986328 
	C448.791595,454.639893 447.690918,457.030212 445.927582,459.191223 
	C444.308777,461.175079 442.169189,462.987335 441.974854,466.656708 
	C448.205261,466.656708 454.298645,466.656494 460.392029,466.656738 
	C464.558197,466.656921 468.732147,466.816376 472.888184,466.611450 
	C476.686646,466.424133 479.365295,467.694855 480.875671,471.664490 
	C481.000000,472.750000 481.000000,473.500000 481.000000,474.625000 
M397.071594,399.641083 
	C399.664642,402.940002 400.707001,406.666107 400.346893,410.853333 
	C399.578430,419.787354 398.658966,428.716644 398.218048,437.668365 
	C397.739716,447.379791 396.198730,456.193420 385.655579,460.304657 
	C383.257812,461.239716 382.584076,463.522430 383.240112,466.009644 
	C394.446991,468.015656 395.493103,467.643250 398.578827,457.467346 
	C400.106293,452.430298 403.680542,449.890686 407.711700,447.491699 
	C409.940125,446.165466 411.561249,444.730774 411.782043,441.746490 
	C412.565582,431.155701 413.380768,420.553558 414.704407,410.021088 
	C415.623260,402.709564 413.527710,397.290741 407.047638,393.699219 
	C403.410156,391.683167 399.881897,389.395447 396.070801,387.782013 
	C386.973297,383.930603 380.308411,377.381500 374.771393,369.482086 
	C367.895935,359.673126 363.632629,348.664093 360.536285,337.208801 
	C359.403503,333.017975 357.509613,331.802582 353.448700,333.316986 
	C350.184937,334.534119 346.769714,335.347717 343.415924,336.320465 
	C307.286957,346.799744 270.962524,356.225098 232.951416,356.194214 
	C229.532166,356.191437 228.445358,357.380402 228.220337,360.833344 
	C227.905182,365.669403 229.143814,370.312042 228.904007,375.198914 
	C228.365204,386.179810 224.698013,396.693817 225.120239,407.821411 
	C225.656158,421.944977 226.988708,436.059204 226.334946,450.218506 
	C226.049957,456.390717 225.459305,462.385559 217.825378,464.102570 
	C217.087387,464.268524 216.339539,464.845398 216.373840,465.937927 
	C217.596939,467.122070 219.176529,466.623505 220.592758,466.624390 
	C267.912048,466.654175 315.231506,466.605255 362.550476,466.727783 
	C366.427155,466.737823 368.590393,465.408081 369.302094,461.761200 
	C370.596283,455.129852 374.029541,450.191742 380.219727,447.245544 
	C382.684784,446.072327 383.606995,444.092224 383.844513,441.255737 
	C384.536102,432.996582 385.514343,424.755005 386.624390,416.539490 
	C387.411743,410.712341 385.954468,406.292145 380.812866,402.844635 
	C376.348389,399.851105 371.619141,397.459686 366.840698,395.128235 
	C362.745270,393.130035 359.006561,390.712921 355.920898,387.359741 
	C347.197327,377.879639 342.459320,366.447296 339.932953,354.016632 
	C339.150696,350.167450 340.544434,346.976593 344.624725,345.844879 
	C348.688507,344.717712 352.112488,347.050964 353.267151,351.287354 
	C354.184052,354.651245 354.947388,358.084076 356.196625,361.325287 
	C360.062073,371.354523 365.370575,379.945709 376.178253,384.273895 
	C384.068146,387.433594 391.251984,392.129333 397.071594,399.641083 
z"/>
<path fill="#000000" opacity="1.000000" stroke="none" 
	d="
M153.145294,146.291458 
	C152.041580,156.586792 151.932678,166.666367 147.283401,175.827515 
	C146.688202,177.000290 146.943497,178.064972 147.706482,179.087250 
	C156.582047,190.978745 166.312775,201.747971 181.328430,206.037415 
	C188.963562,208.218506 196.191147,205.469757 203.512589,204.460815 
	C219.995209,202.189377 236.526001,200.830948 253.149658,200.686874 
	C270.457458,200.536835 287.777313,200.375931 305.046936,201.815125 
	C340.046387,204.731888 374.747314,209.230865 407.924408,221.655411 
	C425.252899,228.144791 440.437408,237.814301 452.184204,252.226135 
	C462.025055,264.299622 465.206604,278.562317 464.289124,293.890747 
	C464.104889,296.968719 462.562103,298.863037 459.445618,299.265167 
	C456.234131,299.679504 453.297241,299.149872 452.012970,295.742493 
	C451.079498,293.265991 450.601166,290.643768 450.759827,287.916992 
	C451.064850,282.675293 449.605255,277.717194 448.099396,272.771790 
	C445.408752,263.935364 440.186829,259.989380 430.279480,258.933136 
	C403.784180,256.108337 377.767761,250.566223 353.106537,239.767944 
	C343.803955,235.694672 333.807251,233.532990 323.919312,231.207504 
	C321.824890,230.714951 319.613739,230.306305 317.755798,229.304001 
	C313.548828,227.034409 317.100708,224.803635 318.215546,222.981552 
	C317.729340,221.710342 316.987396,221.210678 316.156860,221.216812 
	C307.103302,221.283508 299.270966,216.450455 290.625885,214.918030 
	C288.834625,214.600540 286.996216,214.409729 285.178558,214.402405 
	C270.850586,214.344650 256.501831,213.858734 242.200043,214.464172 
	C227.622986,215.081253 213.015091,216.135468 198.664307,219.125732 
	C190.011826,220.928650 181.487885,220.846237 173.056747,218.028458 
	C172.583054,217.870148 172.111694,217.608414 171.630264,217.585770 
	C169.089279,217.466217 166.346741,215.180649 164.065125,217.539230 
	C161.905838,219.771301 165.483368,221.616730 165.129395,224.709885 
	C159.558167,221.502258 156.712997,216.965775 155.840561,211.294998 
	C155.421677,208.572327 154.295074,206.663559 152.328491,204.986496 
	C144.647934,198.436600 138.630249,190.489380 133.130875,182.104370 
	C130.732574,178.447617 130.913147,174.970032 133.529373,171.480850 
	C135.942551,168.262451 137.452789,164.682663 137.780334,159.466583 
	C132.248718,163.371292 127.581184,166.738083 122.834663,169.989578 
	C119.981842,171.943817 116.832054,172.177567 113.915459,170.304169 
	C111.102692,168.497452 111.197655,165.550079 111.807358,162.658661 
	C112.215576,160.722748 113.713821,159.659882 115.240273,158.572861 
	C123.379219,152.776947 131.467880,146.910522 139.590942,141.092239 
	C146.467300,136.166901 150.787308,137.704407 153.145294,146.291458 
M405.614807,247.126251 
	C410.058807,249.640732 414.510712,252.171249 419.698242,252.789551 
	C421.180511,252.966202 422.797302,252.810287 423.412659,251.057068 
	C423.938324,249.559479 422.923859,248.496552 421.941711,247.634079 
	C419.445038,245.441635 416.595917,243.753998 413.545380,242.466568 
	C409.921112,240.936996 406.307037,240.341263 403.071472,243.156601 
	C403.013000,244.971741 404.247406,245.695450 405.614807,247.126251 
z"/>
<path fill="#000000" opacity="1.000000" stroke="none" 
	d="
M100.385902,187.407410 
	C99.980804,194.120758 98.811974,195.270004 92.684814,195.347183 
	C90.368668,195.376358 88.050964,195.370636 85.735199,195.322296 
	C81.694801,195.237946 79.711967,193.133514 79.671974,189.101669 
	C79.629303,184.800888 81.732895,182.672806 86.019501,182.672455 
	C88.667084,182.672241 91.315643,182.715286 93.962006,182.658081 
	C97.157722,182.588974 99.385315,183.841522 100.385902,187.407410 
z"/>
</svg>